HIERARCHY
ROOT Hips
{
  OFFSET 5.80788e-005 67.184 3.4734
  CHANNELS 6 Xposition Yposition Zposition Zrotation Xrotation Yrotation
  JOINT Chest
  {
    OFFSET 0 8.7983 -4.7612
    CHANNELS 6 Xposition Yposition Zposition Zrotation Xrotation Yrotation
    JOINT Chest2
    {
      OFFSET 0 8.0291 0.4195
      CHANNELS 6 Xposition Yposition Zposition Zrotation Xrotation Yrotation
      JOINT Chest3
      {
        OFFSET 0 9.9351 -2.2114
        CHANNELS 6 Xposition Yposition Zposition Zrotation Xrotation Yrotation
        JOINT Neck
        {
          OFFSET 0 22.3885 -0.4656
          CHANNELS 6 Xposition Yposition Zposition Zrotation Xrotation Yrotation
          JOINT Head
          {
            OFFSET -0.0001 12.643 3.4389
            CHANNELS 6 Xposition Yposition Zposition Zrotation Xrotation Yrotation
            End Site
            {
              OFFSET 0.0001 17.6655 0.5274
            }
          }
        }
        JOINT LeftCollar
        {
          OFFSET 2.2603 21.606 7.4023
          CHANNELS 6 Xposition Yposition Zposition Zrotation Xrotation Yrotation
          JOINT LeftShoulder
          {
            OFFSET 13.5163 -1.1332 -5.0146
            CHANNELS 6 Xposition Yposition Zposition Zrotation Xrotation Yrotation
            JOINT LeftElbow
            {
              OFFSET -0.0995 -28.05 -0.2431
              CHANNELS 6 Xposition Yposition Zposition Zrotation Xrotation Yrotation
              JOINT LeftWrist
              {
                OFFSET 0.0679 -23.3996 -0.1402
                CHANNELS 6 Xposition Yposition Zposition Zrotation Xrotation Yrotation
                JOINT LeftFinger1
                {
                  OFFSET 0.7932 -9.069 2.5189
                  CHANNELS 6 Xposition Yposition Zposition Zrotation Xrotation Yrotation
                  JOINT LeftFinger11
                  {
                    OFFSET -0.8272 -3.3923 0.5977
                    CHANNELS 6 Xposition Yposition Zposition Zrotation Xrotation Yrotation
                    JOINT LeftFinger12
                    {
                      OFFSET -0.5649 -2.3158 0.4082
                      CHANNELS 6 Xposition Yposition Zposition Zrotation Xrotation Yrotation
                      End Site
                      {
                        OFFSET -0.4919 -1.6479 0.2673
                      }
                    }
                  }
                }
                JOINT LeftFinger2
                {
                  OFFSET 0.9159 -9.2044 0.2193
                  CHANNELS 6 Xposition Yposition Zposition Zrotation Xrotation Yrotation
                  JOINT LeftFinger21
                  {
                    OFFSET 0.0117 -4.1944 -0.0248
                    CHANNELS 6 Xposition Yposition Zposition Zrotation Xrotation Yrotation
                    JOINT LeftFinger22
                    {
                      OFFSET 0.0071 -2.3249 -0.0142
                      CHANNELS 6 Xposition Yposition Zposition Zrotation Xrotation Yrotation
                      End Site
                      {
                        OFFSET -0.1475 -2.0882 0.0028
                      }
                    }
                  }
                }
                JOINT LeftFinger3
                {
                  OFFSET 0.6113 -8.7231 -2.0637
                  CHANNELS 6 Xposition Yposition Zposition Zrotation Xrotation Yrotation
                  JOINT LeftFinger31
                  {
                    OFFSET -0.1927 -3.8059 -0.2383
                    CHANNELS 6 Xposition Yposition Zposition Zrotation Xrotation Yrotation
                    JOINT LeftFinger32
                    {
                      OFFSET -0.1091 -2.1688 -0.1362
                      CHANNELS 6 Xposition Yposition Zposition Zrotation Xrotation Yrotation
                      End Site
                      {
                        OFFSET -0.2358 -1.9176 -0.0906
                      }
                    }
                  }
                }
                JOINT LeftFinger4
                {
                  OFFSET -0.6151 -8.0947 -3.5641
                  CHANNELS 6 Xposition Yposition Zposition Zrotation Xrotation Yrotation
                  JOINT LeftFinger41
                  {
                    OFFSET -0.4882 -2.341 -0.6462
                    CHANNELS 6 Xposition Yposition Zposition Zrotation Xrotation Yrotation
                    JOINT LeftFinger42
                    {
                      OFFSET -0.3575 -1.7167 -0.4742
                      CHANNELS 6 Xposition Yposition Zposition Zrotation Xrotation Yrotation
                      End Site
                      {
                        OFFSET -0.4187 -1.5237 -0.3496
                      }
                    }
                  }
                }
                JOINT LeftFinger0
                {
                  OFFSET -1.42 -1.8761 1.4223
                  CHANNELS 6 Xposition Yposition Zposition Zrotation Xrotation Yrotation
                  JOINT LeftFinger01
                  {
                    OFFSET -1.1471 -3.4929 2.6334
                    CHANNELS 6 Xposition Yposition Zposition Zrotation Xrotation Yrotation
                    JOINT LeftFinger02
                    {
                      OFFSET -0.823 -2.3 1.6571
                      CHANNELS 6 Xposition Yposition Zposition Zrotation Xrotation Yrotation
                      End Site
                      {
                        OFFSET -0.5822 -1.6914 1.1582
                      }
                    }
                  }
                }
              }
            }
          }
        }
        JOINT RightCollar
        {
          OFFSET -2.2603 21.606 7.4023
          CHANNELS 6 Xposition Yposition Zposition Zrotation Xrotation Yrotation
          JOINT RightShoulder
          {
            OFFSET -13.5187 -1.1334 -5.0155
            CHANNELS 6 Xposition Yposition Zposition Zrotation Xrotation Yrotation
            JOINT RightElbow
            {
              OFFSET 0.0994 -28.0499 -0.2431
              CHANNELS 6 Xposition Yposition Zposition Zrotation Xrotation Yrotation
              JOINT RightWrist
              {
                OFFSET -0.0679 -23.3996 -0.1402
                CHANNELS 6 Xposition Yposition Zposition Zrotation Xrotation Yrotation
                JOINT RightFinger1
                {
                  OFFSET -0.7932 -9.0691 2.5189
                  CHANNELS 6 Xposition Yposition Zposition Zrotation Xrotation Yrotation
                  JOINT RightFinger11
                  {
                    OFFSET 0.8272 -3.3923 0.5977
                    CHANNELS 6 Xposition Yposition Zposition Zrotation Xrotation Yrotation
                    JOINT RightFinger12
                    {
                      OFFSET 0.565 -2.3158 0.4082
                      CHANNELS 6 Xposition Yposition Zposition Zrotation Xrotation Yrotation
                      End Site
                      {
                        OFFSET 0.4919 -1.6479 0.2673
                      }
                    }
                  }
                }
                JOINT RightFinger2
                {
                  OFFSET -0.916 -9.2044 0.2193
                  CHANNELS 6 Xposition Yposition Zposition Zrotation Xrotation Yrotation
                  JOINT RightFinger21
                  {
                    OFFSET -0.0117 -4.1944 -0.0248
                    CHANNELS 6 Xposition Yposition Zposition Zrotation Xrotation Yrotation
                    JOINT RightFinger22
                    {
                      OFFSET -0.0071 -2.3249 -0.0142
                      CHANNELS 6 Xposition Yposition Zposition Zrotation Xrotation Yrotation
                      End Site
                      {
                        OFFSET 0.1475 -2.0882 0.0028
                      }
                    }
                  }
                }
                JOINT RightFinger3
                {
                  OFFSET -0.6113 -8.7231 -2.0637
                  CHANNELS 6 Xposition Yposition Zposition Zrotation Xrotation Yrotation
                  JOINT RightFinger31
                  {
                    OFFSET 0.1927 -3.8059 -0.2383
                    CHANNELS 6 Xposition Yposition Zposition Zrotation Xrotation Yrotation
                    JOINT RightFinger32
                    {
                      OFFSET 0.1091 -2.1688 -0.1362
                      CHANNELS 6 Xposition Yposition Zposition Zrotation Xrotation Yrotation
                      End Site
                      {
                        OFFSET 0.2358 -1.9176 -0.0906
                      }
                    }
                  }
                }
                JOINT RightFinger4
                {
                  OFFSET 0.6151 -8.0947 -3.564
                  CHANNELS 6 Xposition Yposition Zposition Zrotation Xrotation Yrotation
                  JOINT RightFinger41
                  {
                    OFFSET 0.4882 -2.341 -0.6462
                    CHANNELS 6 Xposition Yposition Zposition Zrotation Xrotation Yrotation
                    JOINT RightFinger42
                    {
                      OFFSET 0.3574 -1.7166 -0.4742
                      CHANNELS 6 Xposition Yposition Zposition Zrotation Xrotation Yrotation
                      End Site
                      {
                        OFFSET 0.4187 -1.5237 -0.3496
                      }
                    }
                  }
                }
                JOINT RightFinger0
                {
                  OFFSET 1.4199 -1.8761 1.4221
                  CHANNELS 6 Xposition Yposition Zposition Zrotation Xrotation Yrotation
                  JOINT RightFinger01
                  {
                    OFFSET 1.1472 -3.4929 2.6336
                    CHANNELS 6 Xposition Yposition Zposition Zrotation Xrotation Yrotation
                    JOINT RightFinger02
                    {
                      OFFSET 0.8229 -2.3 1.6571
                      CHANNELS 6 Xposition Yposition Zposition Zrotation Xrotation Yrotation
                      End Site
                      {
                        OFFSET 0.5822 -1.6914 1.1582
                      }
                    }
                  }
                }
              }
            }
          }
        }
      }
    }
  }
  JOINT RightHip
  {
    OFFSET -9.412 3.9771 -0.7758
    CHANNELS 6 Xposition Yposition Zposition Zrotation Xrotation Yrotation
    JOINT RightKnee
    {
      OFFSET -0.7531 -40.938 0
      CHANNELS 6 Xposition Yposition Zposition Zrotation Xrotation Yrotation
      JOINT RightAnkle
      {
        OFFSET 0 -40.1986 0
        CHANNELS 6 Xposition Yposition Zposition Zrotation Xrotation Yrotation
        JOINT RightToe
        {
          OFFSET 0 -4.4182 9.239
          CHANNELS 6 Xposition Yposition Zposition Zrotation Xrotation Yrotation
          End Site
          {
            OFFSET 0 0 6.1981
          }
        }
      }
    }
  }
  JOINT LeftHip
  {
    OFFSET 9.4119 3.9773 -0.7758
    CHANNELS 6 Xposition Yposition Zposition Zrotation Xrotation Yrotation
    JOINT LeftKnee
    {
      OFFSET 0.7532 -40.9383 0
      CHANNELS 6 Xposition Yposition Zposition Zrotation Xrotation Yrotation
      JOINT LeftAnkle
      {
        OFFSET 0 -40.1986 0
        CHANNELS 6 Xposition Yposition Zposition Zrotation Xrotation Yrotation
        JOINT LeftToe
        {
          OFFSET 0 -4.4182 9.239
          CHANNELS 6 Xposition Yposition Zposition Zrotation Xrotation Yrotation
          End Site
          {
            OFFSET 0 0 6.1981
          }
        }
      }
    }
  }
}
MOTION
Frames:	4
Frame Time:	0.0333333
-17.2167 3.25727 -1.17846 -179.929 -89.9981 -179.929 0 8.7983 -4.7612 -5.67451 11.7108 -3.89528 -3.55271e-015 8.0291 0.4195 -10.8645 23.7347 -6.78339 0 9.9351 -2.2114 -10.8644 23.7346 -6.78338 3.55271e-015 22.3885 -0.4656 -10.3253 -5.05742 -14.4932 -0.0001 12.643 3.4389 9.62153 -10.6585 31.1533 2.2603 21.606 7.4023 -32.8342 12.4806 -13.9259 13.5163 -1.1332 -5.0146 43.1388 12.4559 95.2526 -0.0995 -28.05 -0.2431 -12.8916 -7.05249 -62.3573 0.0679 -23.3996 -0.1402 70.0944 -37.102 -18.7144 0.7932 -9.069 2.5189 -3.18055e-015 0 -4.77083e-015 -0.8272 -3.3923 0.5977 2.64834e-031 9.54166e-015 -1.59028e-015 -0.5649 -2.3158 0.4082 8.82781e-032 3.18055e-015 -1.59028e-015 0.9159 -9.2044 0.2193 -3.18055e-015 0 -4.77083e-015 0.0117 -4.1944 -0.0248 -0.0128389 0.00232664 8.73672e-005 0.0071 -2.3249 -0.0142 -3.18055e-015 -3.18055e-015 -0 0.6113 -8.7231 -2.0637 -3.18055e-015 0 -4.77083e-015 -0.1927 -3.8059 -0.2383 -0.0160588 0.00299599 0.000855296 -0.1091 -2.1688 -0.1362 -8.53585e-006 7.13766e-006 6.26298e-006 -0.6151 -8.0947 -3.5641 -3.18055e-015 0 -4.77083e-015 -0.4882 -2.341 -0.6462 -0.0126062 0.00312371 0.00283534 -0.3575 -1.7167 -0.4742 3.18055e-015 -6.36111e-015 -1.59028e-015 -1.42 -1.8761 1.4223 -3.18055e-015 0 -4.77083e-015 -1.1471 -3.4929 2.6334 2.64834e-031 9.54166e-015 -1.59028e-015 -0.823 -2.3 1.6571 8.82781e-032 3.18055e-015 -1.59028e-015 -2.2603 21.606 7.4023 20.4591 -31.5811 -30.7775 -13.5187 -1.1334 -5.0155 -60.6883 23.7813 40.6021 0.0994 -28.0499 -0.2431 -81.4079 -52.0693 -11.8333 -0.0679 -23.3996 -0.1402 -0.678736 -8.9247 8.73605 -0.7932 -9.0691 2.5189 3.97569e-016 0 -1.59028e-015 0.8272 -3.3923 0.5977 -7.95139e-016 1.59028e-015 -3.18055e-015 0.565 -2.3158 0.4082 -7.95139e-016 1.59028e-015 -3.18055e-015 -0.916 -9.2044 0.2193 3.97569e-016 0 -1.59028e-015 -0.0117 -4.1944 -0.0248 0.0129452 0.00231603 -8.66717e-005 -0.0071 -2.3249 -0.0142 1.15295e-014 1.59028e-015 -3.18055e-015 -0.6113 -8.7231 -2.0637 3.97569e-016 0 -1.59028e-015 0.1927 -3.8059 -0.2383 0.0163163 0.00303018 -0.000870106 0.1091 -2.1688 -0.1362 -1.19271e-015 -1.59028e-015 -0 0.6151 -8.0947 -3.564 3.97569e-016 0 -1.59028e-015 0.4882 -2.341 -0.6462 0.0145716 0.00367764 -0.0032586 0.3574 -1.7166 -0.4742 1.19271e-015 -6.36111e-015 -1.59028e-015 1.4199 -1.8761 1.4221 3.97569e-016 0 -1.59028e-015 1.1472 -3.4929 2.6336 -7.95139e-016 1.59028e-015 -3.18055e-015 0.8229 -2.3 1.6571 -7.95139e-016 1.59028e-015 -3.18055e-015 -9.412 3.9771 -0.7758 -77.3665 -22.1675 -61.3228 -0.7531 -40.938 0 -160.621 68.7356 155.265 -1.77636e-015 -40.1986 0 -49.8703 6.60927 63.6961 1.42109e-014 -4.4182 9.239 -1.25064e-009 -6.95622e-013 -1.24985e-012 9.4119 3.9773 -0.7758 40.834 -79.0433 65.4591 0.7532 -40.9383 4.44089e-016 62.4937 79.2488 -59.7887 5.32907e-015 -40.1986 0 13.6041 42.2629 -32.2348 -1.77636e-015 -4.4182 9.239 2.26394e-006 -2.34915e-006 4.06471e-006 
-17.2167 3.25728 -1.17846 -179.956 -89.9981 -179.956 -3.55271e-015 8.7983 -4.7612 -5.67338 11.7351 -3.90203 0 8.0291 0.4195 -10.8602 23.7837 -6.79572 3.55271e-015 9.9351 -2.2114 -10.8602 23.7836 -6.79572 0 22.3885 -0.4656 -9.99553 -5.21531 -14.9375 -0.0001 12.643 3.4389 9.84563 -10.8399 31.2108 2.2603 21.606 7.4023 -32.7098 12.4429 -14.0535 13.5163 -1.1332 -5.0146 43.1388 12.4559 95.2526 -0.0995 -28.05 -0.2431 -12.8916 -7.05253 -62.3573 0.0679 -23.3996 -0.1402 70.0943 -37.102 -18.7145 0.7932 -9.069 2.5189 6.36111e-015 0 -0 -0.8272 -3.3923 0.5977 -1.14077e-007 9.11354e-007 -5.94988e-006 -0.5649 -2.3158 0.4082 3.18055e-015 -3.18055e-015 3.18055e-015 0.9159 -9.2044 0.2193 6.36111e-015 0 -0 0.0117 -4.1944 -0.0248 -0.0128299 0.00232781 8.70868e-005 0.0071 -2.3249 -0.0142 -9.54166e-015 3.18055e-015 -3.18055e-015 0.6113 -8.7231 -2.0637 6.36111e-015 0 -0 -0.1927 -3.8059 -0.2383 -0.0160611 0.00300168 0.000851583 -0.1091 -2.1688 -0.1362 1.00002e-006 -1.37948e-006 4.49519e-006 -0.6151 -8.0947 -3.5641 6.36111e-015 0 -0 -0.4882 -2.341 -0.6462 -0.012593 0.00310756 0.00282369 -0.3575 -1.7167 -0.4742 2.30367e-006 1.06084e-006 1.61988e-006 -1.42 -1.8761 1.4223 6.36111e-015 0 -0 -1.1471 -3.4929 2.6334 -1.14077e-007 9.11354e-007 -5.94988e-006 -0.823 -2.3 1.6571 3.18055e-015 -3.18055e-015 3.18055e-015 -2.2603 21.606 7.4023 20.4896 -31.6241 -30.6831 -13.5187 -1.1334 -5.0155 -60.6883 23.7813 40.602 0.0994 -28.0499 -0.2431 -81.4079 -52.0693 -11.8333 -0.0679 -23.3996 -0.1402 -0.678766 -8.92472 8.73604 -0.7932 -9.0691 2.5189 -1.19271e-015 1.59028e-015 1.59028e-015 0.8272 -3.3923 0.5977 0 1.59028e-015 -0 0.565 -2.3158 0.4082 1.19271e-015 0 1.59028e-015 -0.916 -9.2044 0.2193 -1.19271e-015 1.59028e-015 1.59028e-015 -0.0117 -4.1944 -0.0248 0.0129532 0.00231659 -8.76342e-005 -0.0071 -2.3249 -0.0142 -8.82781e-032 -1.59028e-015 -3.18055e-015 -0.6113 -8.7231 -2.0637 -1.19271e-015 1.59028e-015 1.59028e-015 0.1927 -3.8059 -0.2383 0.0163168 0.00303179 -0.000873206 0.1091 -2.1688 -0.1362 1.59028e-015 1.59028e-015 -0 0.6151 -8.0947 -3.564 -1.19271e-015 1.59028e-015 1.59028e-015 0.4882 -2.341 -0.6462 0.0145699 0.00367702 -0.00326071 0.3574 -1.7166 -0.4742 0 3.18055e-015 -0 1.4199 -1.8761 1.4221 -1.19271e-015 1.59028e-015 1.59028e-015 1.1472 -3.4929 2.6336 0 1.59028e-015 -0 0.8229 -2.3 1.6571 1.19271e-015 0 1.59028e-015 -9.412 3.9771 -0.7758 -77.3029 -22.2439 -61.2241 -0.7531 -40.938 -8.88178e-016 -160.611 68.7348 155.265 3.55271e-015 -40.1986 -7.10543e-015 -49.7572 6.66917 63.6527 0 -4.4182 9.239 -4.16881e-010 -2.26167e-013 -4.07248e-013 9.4119 3.9773 -0.7758 40.834 -79.0433 65.4591 0.7532 -40.9383 1.77636e-015 62.4935 79.2488 -59.7885 -5.32907e-015 -40.1986 7.10543e-015 13.6041 42.2629 -32.2348 -3.55271e-015 -4.4182 9.239 1.12536e-006 -2.32828e-006 8.30018e-007 
-17.2167 3.25729 -1.17846 179.991 -89.9981 179.991 -3.55271e-015 8.7983 -4.7612 -5.6723 11.7577 -3.9083 0 8.0291 0.4195 -10.8562 23.8293 -6.80721 0 9.9351 -2.2114 -10.8562 23.8292 -6.8072 -3.55271e-015 22.3885 -0.4656 -9.66725 -5.37557 -15.3807 -0.0001 12.643 3.4389 10.07 -11.0211 31.2692 2.2603 21.606 7.4023 -32.5941 12.4075 -14.1722 13.5163 -1.1332 -5.0146 43.1387 12.4559 95.2526 -0.0995 -28.05 -0.2431 -12.8916 -7.05255 -62.3573 0.0679 -23.3996 -0.1402 70.0943 -37.102 -18.7145 0.7932 -9.069 2.5189 3.18055e-015 0 1.59028e-015 -0.8272 -3.3923 0.5977 6.36111e-015 -3.18055e-015 -0 -0.5649 -2.3158 0.4082 8.82781e-032 -3.18055e-015 1.59028e-015 0.915901 -9.2044 0.2193 3.18055e-015 0 1.59028e-015 0.0117 -4.1944 -0.0248 -0.0128228 0.00233148 8.47927e-005 0.0071 -2.3249 -0.0142 3.18055e-015 -6.36111e-015 4.77083e-015 0.6113 -8.7231 -2.0637 3.18055e-015 0 1.59028e-015 -0.1927 -3.8059 -0.2383 -0.0160356 0.00299417 0.000857958 -0.1091 -2.1688 -0.1362 -5.29669e-031 9.54166e-015 3.18055e-015 -0.6151 -8.0947 -3.5641 3.18055e-015 0 1.59028e-015 -0.4882 -2.341 -0.6462 -0.0126267 0.0031381 0.00283708 -0.3575 -1.7167 -0.4742 -3.18055e-015 1.27222e-014 -1.59028e-015 -1.42 -1.8761 1.4223 3.18055e-015 0 1.59028e-015 -1.1471 -3.4929 2.6334 6.36111e-015 -3.18055e-015 -0 -0.823 -2.3 1.6571 8.82781e-032 -3.18055e-015 1.59028e-015 -2.2603 21.606 7.4023 20.5181 -31.664 -30.5951 -13.5187 -1.1334 -5.0155 -60.6883 23.7813 40.6021 0.0994001 -28.0499 -0.2431 -81.4079 -52.0693 -11.8334 -0.0679 -23.3996 -0.1402 -0.678735 -8.92472 8.73606 -0.7932 -9.0691 2.5189 -6.62086e-031 7.95139e-015 4.77083e-015 0.8272 -3.3923 0.5977 3.97569e-016 7.95139e-015 3.18055e-015 0.565 -2.3158 0.4082 1.98785e-015 4.77083e-015 6.36111e-015 -0.916 -9.2044 0.2193 -6.62086e-031 7.95139e-015 4.77083e-015 -0.0117 -4.1944 -0.0248 0.0129536 0.00231289 -8.79508e-005 -0.0071 -2.3249 -0.0142 3.97569e-016 4.77083e-015 -0 -0.6113 -8.7231 -2.0637 -6.62086e-031 7.95139e-015 4.77083e-015 0.1927 -3.8059 -0.2383 0.0163538 0.00303855 -0.000873409 0.1091 -2.1688 -0.1362 1.59028e-015 -1.59028e-015 1.59028e-015 0.6151 -8.0947 -3.564 -6.62086e-031 7.95139e-015 4.77083e-015 0.4882 -2.341 -0.6462 0.0145875 0.00367945 -0.00326353 0.3574 -1.7166 -0.4742 1.19271e-015 -1.59028e-015 -0 1.4199 -1.8761 1.4221 -6.62086e-031 7.95139e-015 4.77083e-015 1.1472 -3.4929 2.6336 3.97569e-016 7.95139e-015 3.18055e-015 0.8229 -2.3 1.6571 1.98785e-015 4.77083e-015 6.36111e-015 -9.412 3.9771 -0.7758 -77.2488 -22.3073 -61.134 -0.7531 -40.938 0 -160.593 68.7336 155.265 0 -40.1986 0 -49.6519 6.72488 63.6121 7.10543e-015 -4.4182 9.239 8.91765e-019 -1.2424e-017 1.2424e-017 9.4119 3.9773 -0.7758 40.8342 -79.0433 65.4593 0.7532 -40.9383 0 62.4938 79.2488 -59.7889 -1.77636e-015 -40.1986 1.42109e-014 13.6041 42.2629 -32.2348 -1.77636e-015 -4.4182 9.239 3.07823e-006 -1.45011e-005 -2.68715e-006 
-17.2167 3.25729 -1.17846 179.992 -89.9981 179.992 3.55271e-015 8.7983 -4.7612 -5.67119 11.7803 -3.91458 0 8.0291 0.4195 -10.8522 23.8749 -6.8187 0 9.9351 -2.2114 -10.8522 23.8748 -6.81868 3.55271e-015 22.3885 -0.4656 -9.34041 -5.53819 -15.8225 -0.0001 12.643 3.4389 10.2947 -11.202 31.3282 2.2603 21.606 7.4023 -32.4785 12.3719 -14.2908 13.5163 -1.1332 -5.0146 43.1388 12.456 95.2526 -0.0995 -28.05 -0.2431 -12.8916 -7.05256 -62.3573 0.0679 -23.3996 -0.1402 70.0943 -37.102 -18.7144 0.7932 -9.069 2.5189 -3.18055e-015 6.36111e-015 -3.18055e-015 -0.8272 -3.3923 0.5977 0 9.54166e-015 -0 -0.5649 -2.3158 0.4082 -1.22243e-005 3.5786e-006 4.79248e-006 0.9159 -9.2044 0.2193 -3.18055e-015 6.36111e-015 -3.18055e-015 0.0117 -4.1944 -0.0248 -0.0128211 0.00231803 8.75916e-005 0.0071 -2.3249 -0.0142 9.54166e-015 -6.36111e-015 3.18055e-015 0.6113 -8.7231 -2.0637 -3.18055e-015 6.36111e-015 -3.18055e-015 -0.1927 -3.8059 -0.2383 -0.0160513 0.00298377 0.000857592 -0.1091 -2.1688 -0.1362 3.18055e-015 -9.54166e-015 -1.59028e-015 -0.6151 -8.0947 -3.5641 -3.18055e-015 6.36111e-015 -3.18055e-015 -0.4882 -2.341 -0.6462 -0.0125684 0.00312205 0.00282002 -0.3575 -1.7167 -0.4742 -1.05934e-030 1.27222e-014 4.77083e-015 -1.42 -1.8761 1.4223 -3.18055e-015 6.36111e-015 -3.18055e-015 -1.1471 -3.4929 2.6334 0 9.54166e-015 -0 -0.823 -2.3 1.6571 -1.22243e-005 3.5786e-006 4.79248e-006 -2.2603 21.606 7.4023 20.5466 -31.7039 -30.5071 -13.5187 -1.1334 -5.0155 -60.6883 23.7813 40.6021 0.0994 -28.0499 -0.2431 -81.4079 -52.0693 -11.8333 -0.0679 -23.3996 -0.1402 -0.678748 -8.92471 8.73605 -0.7932 -9.0691 2.5189 -1.19271e-015 -1.59028e-015 -0 0.8272 -3.3923 0.5977 -1.59028e-015 -1.59028e-015 -1.59028e-015 0.565 -2.3158 0.4082 -1.19271e-015 -1.59028e-015 -0 -0.916 -9.2044 0.2193 -1.19271e-015 -1.59028e-015 -0 -0.0117 -4.1944 -0.0248 0.0129471 0.00231383 -8.48503e-005 -0.0071 -2.3249 -0.0142 -1.19271e-015 3.18055e-015 -1.59028e-015 -0.6113 -8.7231 -2.0637 -1.19271e-015 -1.59028e-015 -0 0.1927 -3.8059 -0.2383 0.0163259 0.00303582 -0.000870043 0.1091 -2.1688 -0.1362 1.19271e-015 -3.18055e-015 1.59028e-015 0.6151 -8.0947 -3.564 -1.19271e-015 -1.59028e-015 -0 0.4882 -2.341 -0.6462 0.0145659 0.00367772 -0.00325752 0.3574 -1.7166 -0.4742 -3.53113e-031 -6.36111e-015 -3.18055e-015 1.4199 -1.8761 1.4221 -1.19271e-015 -1.59028e-015 -0 1.1472 -3.4929 2.6336 -1.59028e-015 -1.59028e-015 -1.59028e-015 0.8229 -2.3 1.6571 -1.19271e-015 -1.59028e-015 -0 -9.412 3.9771 -0.7758 -77.1514 -22.4326 -61.0274 -0.7531 -40.938 0 -160.644 68.7369 155.261 -1.77636e-015 -40.1986 7.10543e-015 -49.5464 6.78045 63.5714 7.10543e-015 -4.4182 9.239 -8.33763e-010 6.66967e-009 -7.79273e-013 9.4119 3.9773 -0.7758 40.8343 -79.0433 65.4594 0.7532 -40.9383 0 62.4939 79.2489 -59.7889 0 -40.1986 7.10543e-015 13.6041 42.2629 -32.2348 0 -4.4182 9.239 -1.31601e-008 -2.57972e-005 -6.33239e-006 
